# xmcd CD database file
#
# Track frame offsets:
#	150
#	12415
#	24242
#	37194
#	49696
#	61254
#	73071
#	86031
#	99466
#	111421
#	124119
#	137856
#	150006
#	164791
#	177693
#	190783
#	206258
#	220911
#	234996
#	248786
#	259294
#	274554
#	287252
#	299160
#
# Disc length: 4149 seconds
#
# Revision: 0
# Processed by: cddbd v1.5.2PL0 Copyright (c) Steve Scherf et al.
# Submitted via: CDex 1.51
#
DISCID=66103318
DTITLE=Ray Charles - The singles A and B's
DYEAR=2010
DGENRE=Jazz
TTITLE0=Mess Around
TTITLE1=Hallelujah I love her so
TTITLE2=I got a woman
TTITLE3=It should've been me
TTITLE4=This little girl of mine
TTITLE5=lonely avenue
TTITLE6=Greenbacks
TTITLE7=Don't you know
TTITLE8=Roll with my Baby
TTITLE9=Jumpin' in the morning
TTITLE10=The midnight hour
TTITLE11=The sun's gomma shine again
TTITLE12=Funny but i still love you
TTITLE13=Feelin' sad
TTITLE14=Heartbreaker
TTITLE15=Sinner's Prayer
TTITLE16=Losing Hand
TTITLE17=Come back baby
TTITLE18=A fool for you
TTITLE19=Blackjack
TTITLE20=Drown in my own tears
TTITLE21=Mary ann
TTITLE22=What would i do without you
TTITLE23=Leave my woman alone
EXTD=YEAR: 2010
EXTT0=
EXTT1=
EXTT2=
EXTT3=
EXTT4=
EXTT5=
EXTT6=
EXTT7=
EXTT8=
EXTT9=
EXTT10=
EXTT11=
EXTT12=
EXTT13=
EXTT14=
EXTT15=
EXTT16=
EXTT17=
EXTT18=
EXTT19=
EXTT20=
EXTT21=
EXTT22=
EXTT23=
PLAYORDER=
